<svg xmlns="http://www.w3.org/2000/svg" width="207.94199999999998" height="45.846000000000004" viewBox="0 0 69.314 15.282">
<rect width="69.314" height="15.282" fill="white"/>
<path d="M4.00,4.00 L4.00,11.28" fill="none" stroke="#1a1a2e" stroke-width="0.5" stroke-linecap="butt" stroke-linejoin="miter"/>
<path d="M8.86,4.00 L8.86,11.28" fill="none" stroke="#1a1a2e" stroke-width="0.5" stroke-linecap="butt" stroke-linejoin="miter"/>
<path d="M4.00,7.48 L8.86,7.48" fill="none" stroke="#1a1a2e" stroke-width="0.5" stroke-linecap="butt" stroke-linejoin="miter"/>
<path d="M15.44,6.43 L15.44,11.28" fill="none" stroke="#1a1a2e" stroke-width="0.5" stroke-linecap="butt" stroke-linejoin="miter"/>
<path d="M15.44,7.48 L14.75,6.77 L14.05,6.43 L13.01,6.43 L12.33,6.77 L11.62,7.48 L11.28,8.51 L11.28,9.20 L11.62,10.24 L12.33,10.94 L13.01,11.28 L14.05,11.28 L14.75,10.94 L15.44,10.24" fill="none" stroke="#1a1a2e" stroke-width="0.5" stroke-linecap="butt" stroke-linejoin="miter"/>
<path d="M18.20,6.43 L18.20,11.28" fill="none" stroke="#1a1a2e" stroke-width="0.5" stroke-linecap="butt" stroke-linejoin="miter"/>
<path d="M18.20,7.82 L19.25,6.77 L19.94,6.43 L20.97,6.43 L21.68,6.77 L22.02,7.82 L22.02,11.28" fill="none" stroke="#1a1a2e" stroke-width="0.5" stroke-linecap="butt" stroke-linejoin="miter"/>
<path d="M28.60,4.00 L28.60,11.28" fill="none" stroke="#1a1a2e" stroke-width="0.5" stroke-linecap="butt" stroke-linejoin="miter"/>
<path d="M28.60,7.48 L27.90,6.77 L27.21,6.43 L26.16,6.43 L25.48,6.77 L24.78,7.48 L24.44,8.51 L24.44,9.20 L24.78,10.24 L25.48,10.94 L26.16,11.28 L27.21,11.28 L27.90,10.94 L28.60,10.24" fill="none" stroke="#1a1a2e" stroke-width="0.5" stroke-linecap="butt" stroke-linejoin="miter"/>
<path d="M31.36,4.00 L31.36,11.28" fill="none" stroke="#1a1a2e" stroke-width="0.5" stroke-linecap="butt" stroke-linejoin="miter"/>
<path d="M31.36,4.00 L34.48,4.00 L35.52,4.35 L35.87,4.70 L36.22,5.39 L36.22,6.43 L35.87,7.12 L35.52,7.48 L34.48,7.82 L31.36,7.82" fill="none" stroke="#1a1a2e" stroke-width="0.5" stroke-linecap="butt" stroke-linejoin="miter"/>
<path d="M38.64,4.00 L38.64,11.28" fill="none" stroke="#1a1a2e" stroke-width="0.5" stroke-linecap="butt" stroke-linejoin="miter"/>
<path d="M42.80,6.43 L42.11,6.77 L41.41,7.48 L41.07,8.51 L41.07,9.20 L41.41,10.24 L42.11,10.94 L42.80,11.28 L43.84,11.28 L44.53,10.94 L45.23,10.24 L45.57,9.20 L45.57,8.51 L45.23,7.48 L44.53,6.77 L43.84,6.43 L42.80,6.43" fill="none" stroke="#1a1a2e" stroke-width="0.5" stroke-linecap="butt" stroke-linejoin="miter"/>
<path d="M48.34,4.00 L48.34,9.90 L48.69,10.94 L49.37,11.28 L50.08,11.28" fill="none" stroke="#1a1a2e" stroke-width="0.5" stroke-linecap="butt" stroke-linejoin="miter"/>
<path d="M47.31,6.43 L49.73,6.43" fill="none" stroke="#1a1a2e" stroke-width="0.5" stroke-linecap="butt" stroke-linejoin="miter"/>
<path d="M52.50,4.00 L52.50,9.90 L52.85,10.94 L53.53,11.28 L54.24,11.28" fill="none" stroke="#1a1a2e" stroke-width="0.5" stroke-linecap="butt" stroke-linejoin="miter"/>
<path d="M51.46,6.43 L53.88,6.43" fill="none" stroke="#1a1a2e" stroke-width="0.5" stroke-linecap="butt" stroke-linejoin="miter"/>
<path d="M55.96,8.51 L60.12,8.51 L60.12,7.82 L59.78,7.12 L59.43,6.77 L58.74,6.43 L57.69,6.43 L57.01,6.77 L56.30,7.48 L55.96,8.51 L55.96,9.20 L56.30,10.24 L57.01,10.94 L57.69,11.28 L58.74,11.28 L59.43,10.94 L60.12,10.24" fill="none" stroke="#1a1a2e" stroke-width="0.5" stroke-linecap="butt" stroke-linejoin="miter"/>
<path d="M62.54,6.43 L62.54,11.28" fill="none" stroke="#1a1a2e" stroke-width="0.5" stroke-linecap="butt" stroke-linejoin="miter"/>
<path d="M62.54,8.51 L62.89,7.48 L63.59,6.77 L64.28,6.43 L65.31,6.43" fill="none" stroke="#1a1a2e" stroke-width="0.5" stroke-linecap="butt" stroke-linejoin="miter"/>
</svg>