<svg xmlns="http://www.w3.org/2000/svg" width="233.946" height="45.846000000000004" viewBox="0 0 77.982 15.282">
<rect width="77.982" height="15.282" fill="white"/>
<path d="M5.03,4.00 L5.03,11.28" fill="none" stroke="#1a1a2e" stroke-width="0.5" stroke-linecap="butt" stroke-linejoin="miter"/>
<path d="M5.39,4.00 L5.39,11.28" fill="none" stroke="#1a1a2e" stroke-width="0.5" stroke-linecap="butt" stroke-linejoin="miter"/>
<path d="M9.54,4.00 L9.54,11.28" fill="none" stroke="#1a1a2e" stroke-width="0.5" stroke-linecap="butt" stroke-linejoin="miter"/>
<path d="M9.90,4.00 L9.90,11.28" fill="none" stroke="#1a1a2e" stroke-width="0.5" stroke-linecap="butt" stroke-linejoin="miter"/>
<path d="M4.00,4.00 L6.42,4.00" fill="none" stroke="#1a1a2e" stroke-width="0.5" stroke-linecap="butt" stroke-linejoin="miter"/>
<path d="M8.51,4.00 L10.93,4.00" fill="none" stroke="#1a1a2e" stroke-width="0.5" stroke-linecap="butt" stroke-linejoin="miter"/>
<path d="M5.39,7.48 L9.54,7.48" fill="none" stroke="#1a1a2e" stroke-width="0.5" stroke-linecap="butt" stroke-linejoin="miter"/>
<path d="M4.00,11.28 L6.42,11.28" fill="none" stroke="#1a1a2e" stroke-width="0.5" stroke-linecap="butt" stroke-linejoin="miter"/>
<path d="M8.51,11.28 L10.93,11.28" fill="none" stroke="#1a1a2e" stroke-width="0.5" stroke-linecap="butt" stroke-linejoin="miter"/>
<path d="M13.35,7.12 L13.35,7.48 L13.01,7.48 L13.01,7.12 L13.35,6.77 L14.05,6.43 L15.44,6.43 L16.12,6.77 L16.47,7.12 L16.83,7.82 L16.83,10.24 L17.17,10.94 L17.51,11.28" fill="none" stroke="#1a1a2e" stroke-width="0.5" stroke-linecap="butt" stroke-linejoin="miter"/>
<path d="M16.47,7.12 L16.47,10.24 L16.83,10.94 L17.51,11.28 L17.86,11.28" fill="none" stroke="#1a1a2e" stroke-width="0.5" stroke-linecap="butt" stroke-linejoin="miter"/>
<path d="M16.47,7.82 L16.12,8.16 L14.05,8.51 L13.01,8.86 L12.67,9.54 L12.67,10.24 L13.01,10.94 L14.05,11.28 L15.09,11.28 L15.78,10.94 L16.47,10.24" fill="none" stroke="#1a1a2e" stroke-width="0.5" stroke-linecap="butt" stroke-linejoin="miter"/>
<path d="M14.05,8.51 L13.35,8.86 L13.01,9.54 L13.01,10.24 L13.35,10.94 L14.05,11.28" fill="none" stroke="#1a1a2e" stroke-width="0.5" stroke-linecap="butt" stroke-linejoin="miter"/>
<path d="M20.28,6.43 L20.28,11.28" fill="none" stroke="#1a1a2e" stroke-width="0.5" stroke-linecap="butt" stroke-linejoin="miter"/>
<path d="M20.63,6.43 L20.63,11.28" fill="none" stroke="#1a1a2e" stroke-width="0.5" stroke-linecap="butt" stroke-linejoin="miter"/>
<path d="M20.63,7.48 L21.32,6.77 L22.37,6.43 L23.05,6.43 L24.10,6.77 L24.44,7.48 L24.44,11.28" fill="none" stroke="#1a1a2e" stroke-width="0.5" stroke-linecap="butt" stroke-linejoin="miter"/>
<path d="M23.05,6.43 L23.76,6.77 L24.10,7.48 L24.10,11.28" fill="none" stroke="#1a1a2e" stroke-width="0.5" stroke-linecap="butt" stroke-linejoin="miter"/>
<path d="M19.25,6.43 L20.63,6.43" fill="none" stroke="#1a1a2e" stroke-width="0.5" stroke-linecap="butt" stroke-linejoin="miter"/>
<path d="M19.25,11.28 L21.67,11.28" fill="none" stroke="#1a1a2e" stroke-width="0.5" stroke-linecap="butt" stroke-linejoin="miter"/>
<path d="M23.05,11.28 L25.48,11.28" fill="none" stroke="#1a1a2e" stroke-width="0.5" stroke-linecap="butt" stroke-linejoin="miter"/>
<path d="M31.38,4.00 L31.38,11.28" fill="none" stroke="#1a1a2e" stroke-width="0.5" stroke-linecap="butt" stroke-linejoin="miter"/>
<path d="M31.72,4.00 L31.72,11.28" fill="none" stroke="#1a1a2e" stroke-width="0.5" stroke-linecap="butt" stroke-linejoin="miter"/>
<path d="M31.38,7.48 L30.68,6.77 L29.99,6.43 L29.29,6.43 L28.25,6.77 L27.56,7.48 L27.22,8.51 L27.22,9.20 L27.56,10.24 L28.25,10.94 L29.29,11.28 L29.99,11.28 L30.68,10.94 L31.38,10.24" fill="none" stroke="#1a1a2e" stroke-width="0.5" stroke-linecap="butt" stroke-linejoin="miter"/>
<path d="M29.29,6.43 L28.61,6.77 L27.90,7.48 L27.56,8.51 L27.56,9.20 L27.90,10.24 L28.61,10.94 L29.29,11.28" fill="none" stroke="#1a1a2e" stroke-width="0.5" stroke-linecap="butt" stroke-linejoin="miter"/>
<path d="M30.33,4.00 L31.72,4.00" fill="none" stroke="#1a1a2e" stroke-width="0.5" stroke-linecap="butt" stroke-linejoin="miter"/>
<path d="M31.38,11.28 L32.76,11.28" fill="none" stroke="#1a1a2e" stroke-width="0.5" stroke-linecap="butt" stroke-linejoin="miter"/>
<path d="M35.18,4.00 L35.18,11.28" fill="none" stroke="#1a1a2e" stroke-width="0.5" stroke-linecap="butt" stroke-linejoin="miter"/>
<path d="M35.54,4.00 L35.54,11.28" fill="none" stroke="#1a1a2e" stroke-width="0.5" stroke-linecap="butt" stroke-linejoin="miter"/>
<path d="M34.15,4.00 L38.31,4.00 L39.34,4.35 L39.69,4.70 L40.05,5.39 L40.05,6.43 L39.69,7.12 L39.34,7.48 L38.31,7.82 L35.54,7.82" fill="none" stroke="#1a1a2e" stroke-width="0.5" stroke-linecap="butt" stroke-linejoin="miter"/>
<path d="M38.31,4.00 L39.00,4.35 L39.34,4.70 L39.69,5.39 L39.69,6.43 L39.34,7.12 L39.00,7.48 L38.31,7.82" fill="none" stroke="#1a1a2e" stroke-width="0.5" stroke-linecap="butt" stroke-linejoin="miter"/>
<path d="M34.15,11.28 L36.57,11.28" fill="none" stroke="#1a1a2e" stroke-width="0.5" stroke-linecap="butt" stroke-linejoin="miter"/>
<path d="M42.81,4.00 L42.81,11.28" fill="none" stroke="#1a1a2e" stroke-width="0.5" stroke-linecap="butt" stroke-linejoin="miter"/>
<path d="M43.16,4.00 L43.16,11.28" fill="none" stroke="#1a1a2e" stroke-width="0.5" stroke-linecap="butt" stroke-linejoin="miter"/>
<path d="M41.77,4.00 L43.16,4.00" fill="none" stroke="#1a1a2e" stroke-width="0.5" stroke-linecap="butt" stroke-linejoin="miter"/>
<path d="M41.77,11.28 L44.19,11.28" fill="none" stroke="#1a1a2e" stroke-width="0.5" stroke-linecap="butt" stroke-linejoin="miter"/>
<path d="M48.00,6.43 L46.97,6.77 L46.27,7.48 L45.93,8.51 L45.93,9.20 L46.27,10.24 L46.97,10.94 L48.00,11.28 L48.70,11.28 L49.74,10.94 L50.43,10.24 L50.77,9.20 L50.77,8.51 L50.43,7.48 L49.74,6.77 L48.70,6.43 L48.00,6.43" fill="none" stroke="#1a1a2e" stroke-width="0.5" stroke-linecap="butt" stroke-linejoin="miter"/>
<path d="M48.00,6.43 L47.32,6.77 L46.61,7.48 L46.27,8.51 L46.27,9.20 L46.61,10.24 L47.32,10.94 L48.00,11.28" fill="none" stroke="#1a1a2e" stroke-width="0.5" stroke-linecap="butt" stroke-linejoin="miter"/>
<path d="M48.70,11.28 L49.39,10.94 L50.09,10.24 L50.43,9.20 L50.43,8.51 L50.09,7.48 L49.39,6.77 L48.70,6.43" fill="none" stroke="#1a1a2e" stroke-width="0.5" stroke-linecap="butt" stroke-linejoin="miter"/>
<path d="M53.54,4.00 L53.54,9.90 L53.90,10.94 L54.59,11.28 L55.28,11.28 L55.97,10.94 L56.32,10.24" fill="none" stroke="#1a1a2e" stroke-width="0.5" stroke-linecap="butt" stroke-linejoin="miter"/>
<path d="M53.90,4.00 L53.90,9.90 L54.25,10.94 L54.59,11.28" fill="none" stroke="#1a1a2e" stroke-width="0.5" stroke-linecap="butt" stroke-linejoin="miter"/>
<path d="M52.51,6.43 L55.28,6.43" fill="none" stroke="#1a1a2e" stroke-width="0.5" stroke-linecap="butt" stroke-linejoin="miter"/>
<path d="M58.74,4.00 L58.74,9.90 L59.09,10.94 L59.78,11.28 L60.47,11.28 L61.17,10.94 L61.51,10.24" fill="none" stroke="#1a1a2e" stroke-width="0.5" stroke-linecap="butt" stroke-linejoin="miter"/>
<path d="M59.09,4.00 L59.09,9.90 L59.44,10.94 L59.78,11.28" fill="none" stroke="#1a1a2e" stroke-width="0.5" stroke-linecap="butt" stroke-linejoin="miter"/>
<path d="M57.70,6.43 L60.47,6.43" fill="none" stroke="#1a1a2e" stroke-width="0.5" stroke-linecap="butt" stroke-linejoin="miter"/>
<path d="M63.59,8.51 L67.74,8.51 L67.74,7.82 L67.40,7.12 L67.05,6.77 L66.36,6.43 L65.31,6.43 L64.28,6.77 L63.59,7.48 L63.25,8.51 L63.25,9.20 L63.59,10.24 L64.28,10.94 L65.31,11.28 L66.02,11.28 L67.05,10.94 L67.74,10.24" fill="none" stroke="#1a1a2e" stroke-width="0.5" stroke-linecap="butt" stroke-linejoin="miter"/>
<path d="M67.40,8.51 L67.40,7.48 L67.05,6.77" fill="none" stroke="#1a1a2e" stroke-width="0.5" stroke-linecap="butt" stroke-linejoin="miter"/>
<path d="M65.31,6.43 L64.63,6.77 L63.93,7.48 L63.59,8.51 L63.59,9.20 L63.93,10.24 L64.63,10.94 L65.31,11.28" fill="none" stroke="#1a1a2e" stroke-width="0.5" stroke-linecap="butt" stroke-linejoin="miter"/>
<path d="M70.51,6.43 L70.51,11.28" fill="none" stroke="#1a1a2e" stroke-width="0.5" stroke-linecap="butt" stroke-linejoin="miter"/>
<path d="M70.86,6.43 L70.86,11.28" fill="none" stroke="#1a1a2e" stroke-width="0.5" stroke-linecap="butt" stroke-linejoin="miter"/>
<path d="M70.86,8.51 L71.21,7.48 L71.89,6.77 L72.60,6.43 L73.63,6.43 L73.98,6.77 L73.98,7.12 L73.63,7.48 L73.28,7.12 L73.63,6.77" fill="none" stroke="#1a1a2e" stroke-width="0.5" stroke-linecap="butt" stroke-linejoin="miter"/>
<path d="M69.47,6.43 L70.86,6.43" fill="none" stroke="#1a1a2e" stroke-width="0.5" stroke-linecap="butt" stroke-linejoin="miter"/>
<path d="M69.47,11.28 L71.89,11.28" fill="none" stroke="#1a1a2e" stroke-width="0.5" stroke-linecap="butt" stroke-linejoin="miter"/>
</svg>